<svg width="40" height="20" viewBox="0 0 40 20" fill="none" xmlns="http://www.w3.org/2000/svg">
<path d="M9.412 12.68L9.46 10.4L12.472 7.544H14.704L11.812 10.484L10.84 11.276L9.412 12.68ZM7.864 14V5.096H9.736V14H7.864ZM12.676 14L10.492 11.288L11.668 9.836L14.944 14H12.676ZM18.6363 14.096C17.9403 14.096 17.3203 13.956 16.7763 13.676C16.2323 13.388 15.8043 12.992 15.4923 12.488C15.1883 11.984 15.0363 11.412 15.0363 10.772C15.0363 10.124 15.1883 9.552 15.4923 9.056C15.8043 8.552 16.2323 8.16 16.7763 7.88C17.3203 7.592 17.9403 7.448 18.6363 7.448C19.3163 7.448 19.9083 7.592 20.4123 7.88C20.9163 8.16 21.2883 8.564 21.5283 9.092L20.0763 9.872C19.9083 9.568 19.6963 9.344 19.4403 9.2C19.1923 9.056 18.9203 8.984 18.6243 8.984C18.3043 8.984 18.0163 9.056 17.7603 9.2C17.5043 9.344 17.3003 9.548 17.1483 9.812C17.0043 10.076 16.9323 10.396 16.9323 10.772C16.9323 11.148 17.0043 11.468 17.1483 11.732C17.3003 11.996 17.5043 12.2 17.7603 12.344C18.0163 12.488 18.3043 12.56 18.6243 12.56C18.9203 12.56 19.1923 12.492 19.4403 12.356C19.6963 12.212 19.9083 11.984 20.0763 11.672L21.5283 12.464C21.2883 12.984 20.9163 13.388 20.4123 13.676C19.9083 13.956 19.3163 14.096 18.6363 14.096ZM26.5662 14V12.74L26.4462 12.464V10.208C26.4462 9.808 26.3222 9.496 26.0742 9.272C25.8342 9.048 25.4622 8.936 24.9582 8.936C24.6142 8.936 24.2742 8.992 23.9382 9.104C23.6102 9.208 23.3302 9.352 23.0982 9.536L22.4262 8.228C22.7782 7.98 23.2022 7.788 23.6982 7.652C24.1942 7.516 24.6982 7.448 25.2102 7.448C26.1942 7.448 26.9582 7.68 27.5022 8.144C28.0462 8.608 28.3182 9.332 28.3182 10.316V14H26.5662ZM24.5982 14.096C24.0942 14.096 23.6622 14.012 23.3022 13.844C22.9422 13.668 22.6662 13.432 22.4742 13.136C22.2822 12.84 22.1862 12.508 22.1862 12.14C22.1862 11.756 22.2782 11.42 22.4622 11.132C22.6542 10.844 22.9542 10.62 23.3622 10.46C23.7702 10.292 24.3022 10.208 24.9582 10.208H26.6742V11.3H25.1622C24.7222 11.3 24.4182 11.372 24.2502 11.516C24.0902 11.66 24.0102 11.84 24.0102 12.056C24.0102 12.296 24.1022 12.488 24.2862 12.632C24.4782 12.768 24.7382 12.836 25.0662 12.836C25.3782 12.836 25.6582 12.764 25.9062 12.62C26.1542 12.468 26.3342 12.248 26.4462 11.96L26.7342 12.824C26.5982 13.24 26.3502 13.556 25.9902 13.772C25.6302 13.988 25.1662 14.096 24.5982 14.096ZM30.0124 14V5.096H31.8844V14H30.0124Z" fill="#1D1D1F"/>
<rect x="1" y="1" width="38" height="18" rx="9" stroke="#1D1D1F" stroke-width="2"/>
</svg>
