<svg width="40" height="40" viewBox="0 0 40 40" fill="none" xmlns="http://www.w3.org/2000/svg">
<path d="M3.63636 18.1818C3.63636 10.1486 10.1486 3.63636 18.1818 3.63636H25.4545C33.4878 3.63636 40 10.1486 40 18.1818V25.4545C40 33.4878 33.4878 40 25.4545 40H18.1818C10.1486 40 3.63636 33.4878 3.63636 25.4545V18.1818Z" fill="#BB8A41"/>
<path d="M1.81818 16.3636C1.81818 8.3304 8.3304 1.81818 16.3636 1.81818H23.6364C31.6696 1.81818 38.1818 8.3304 38.1818 16.3636V23.6364C38.1818 31.6696 31.6696 38.1818 23.6364 38.1818H16.3636C8.3304 38.1818 1.81818 31.6696 1.81818 23.6364V16.3636Z" fill="#EA5252"/>
<path d="M0 14.5455C0 6.51222 6.51222 0 14.5455 0H21.8182C29.8514 0 36.3636 6.51222 36.3636 14.5455V21.8182C36.3636 29.8514 29.8514 36.3636 21.8182 36.3636H14.5455C6.51222 36.3636 0 29.8514 0 21.8182V14.5455Z" fill="#EAAD52"/>
<path d="M15.4416 11.3116C15.5976 10.7297 16.1958 10.3843 16.7777 10.5402L17.4802 10.7285C18.0622 10.8844 18.4075 11.4826 18.2516 12.0646L17.6869 14.172C17.531 14.754 16.9328 15.0994 16.3508 14.9434L15.6483 14.7552C15.0664 14.5993 14.721 14.0011 14.8769 13.4191L15.4416 11.3116Z" fill="#FBEFDC"/>
<path d="M21.7334 20.5778C21.5274 20.0117 21.8193 19.3857 22.3854 19.1796L23.0688 18.9309C23.635 18.7248 24.261 19.0167 24.4671 19.5829L25.2133 21.6331C25.4194 22.1993 25.1274 22.8253 24.5613 23.0313L23.8779 23.2801C23.3117 23.4861 22.6857 23.1942 22.4796 22.6281L21.7334 20.5778Z" fill="#FBEFDC"/>
<path d="M9.93928 24.4975C10.5184 24.3314 11.1226 24.6663 11.2886 25.2454L11.4891 25.9445C11.6552 26.5237 11.3203 27.1278 10.7411 27.2939L8.64383 27.8953C8.06468 28.0613 7.46056 27.7265 7.29449 27.1473L7.09402 26.4482C6.92796 25.8691 7.26283 25.2649 7.84198 25.0989L9.93928 24.4975Z" fill="#FBEFDC"/>
<path d="M27.574 25.7101C27.6265 25.1099 28.1556 24.6659 28.7558 24.7184L29.4803 24.7818C30.0805 24.8343 30.5245 25.3635 30.472 25.9637L30.2818 28.1372C30.2293 28.7374 29.7002 29.1814 29.1 29.1289L28.3755 29.0655C27.7753 29.013 27.3313 28.4838 27.3838 27.8836L27.574 25.7101Z" fill="#FBEFDC"/>
<path d="M14.1192 26.0649C13.6197 25.728 13.4879 25.05 13.8249 24.5505L14.2315 23.9476C14.5684 23.4481 15.2465 23.3163 15.746 23.6532L17.5548 24.8733C18.0543 25.2102 18.1861 25.8882 17.8492 26.3877L17.4425 26.9906C17.1056 27.4901 16.4275 27.6219 15.928 27.285L14.1192 26.0649Z" fill="#FBEFDC"/>
<path d="M6.4594 17.6856C6.10527 17.1982 6.21332 16.516 6.70075 16.1618L7.28912 15.7344C7.77655 15.3802 8.45877 15.4883 8.81291 15.9757L10.0953 17.7408C10.4495 18.2283 10.3414 18.9105 9.854 19.2646L9.26563 19.6921C8.7782 20.0462 8.09598 19.9382 7.74184 19.4508L6.4594 17.6856Z" fill="#FBEFDC"/>
<path d="M26.9139 12.9882C27.4133 12.6513 28.0914 12.7831 28.4283 13.2826L28.835 13.8855C29.1719 14.385 29.0401 15.0631 28.5406 15.4L26.7318 16.62C26.2323 16.9569 25.5543 16.8251 25.2174 16.3256L24.8107 15.7227C24.4738 15.2232 24.6056 14.5452 25.105 14.2083L26.9139 12.9882Z" fill="#FBEFDC"/>
<path d="M7.83266 9.07251C7.72803 8.47917 8.12422 7.91336 8.71756 7.80874L9.43378 7.68245C10.0271 7.57783 10.5929 7.97401 10.6976 8.56735L11.0764 10.716C11.181 11.3094 10.7849 11.8752 10.1915 11.9798L9.47529 12.1061C8.88196 12.2107 8.31615 11.8145 8.21153 11.2212L7.83266 9.07251Z" fill="#FBEFDC"/>
<path d="M24.7282 9.83493C24.3827 9.3414 24.5026 8.66117 24.9961 8.31559L25.5919 7.89845C26.0854 7.55287 26.7657 7.67282 27.1112 8.16635L28.3627 9.95359C28.7082 10.4471 28.5883 11.1274 28.0948 11.4729L27.499 11.8901C27.0055 12.2357 26.3253 12.1157 25.9797 11.6222L24.7282 9.83493Z" fill="#FBEFDC"/>
</svg>
