<svg width="35" height="35" viewBox="0 0 35 35" fill="none" xmlns="http://www.w3.org/2000/svg">
<path d="M30.625 23.3333V11.6667C30.6245 11.1552 30.4895 10.6529 30.2335 10.21C29.9775 9.76721 29.6096 9.39949 29.1667 9.14375L18.9583 3.31042C18.5149 3.05443 18.012 2.91966 17.5 2.91966C16.988 2.91966 16.4851 3.05443 16.0417 3.31042L5.83333 9.14375C5.39038 9.39949 5.02247 9.76721 4.76651 10.21C4.51054 10.6529 4.37552 11.1552 4.375 11.6667V23.3333C4.37552 23.8448 4.51054 24.3472 4.76651 24.79C5.02247 25.2328 5.39038 25.6005 5.83333 25.8563L16.0417 31.6896C16.4851 31.9456 16.988 32.0803 17.5 32.0803C18.012 32.0803 18.5149 31.9456 18.9583 31.6896L29.1667 25.8563C29.6096 25.6005 29.9775 25.2328 30.2335 24.79C30.4895 24.3472 30.6245 23.8448 30.625 23.3333Z" stroke="white" stroke-width="3" stroke-linecap="round" stroke-linejoin="round"/>
<path d="M4.7688 10.15L17.5 17.5146L30.2313 10.15" stroke="white" stroke-width="3" stroke-linecap="round" stroke-linejoin="round"/>
<path d="M17.5 32.2V17.5" stroke="white" stroke-width="3" stroke-linecap="round" stroke-linejoin="round"/>
</svg>
