<svg width="30" height="30" viewBox="0 0 30 30" fill="none" xmlns="http://www.w3.org/2000/svg">
<path d="M21.25 3.75C21.5783 3.42169 21.9681 3.16127 22.397 2.98359C22.826 2.80591 23.2857 2.71446 23.75 2.71446C24.2143 2.71446 24.674 2.80591 25.103 2.98359C25.5319 3.16127 25.9217 3.42169 26.25 3.75C26.5783 4.0783 26.8387 4.46806 27.0164 4.89701C27.1941 5.32596 27.2855 5.7857 27.2855 6.25C27.2855 6.71429 27.1941 7.17404 27.0164 7.60299C26.8387 8.03194 26.5783 8.42169 26.25 8.75L9.375 25.625L2.5 27.5L4.375 20.625L21.25 3.75Z" stroke="white" stroke-width="3" stroke-linecap="round" stroke-linejoin="round"/>
</svg>
